<svg xmlns="http://www.w3.org/2000/svg" version="1.1" viewBox="0 0 64 80" x="0px" y="0px">
<title>emoji</title>
<path d="M41.779 3.582c10.306 0 18.639 8.334 18.639 18.639s-8.334 18.643-18.639 18.643h-0.914v0.914c0 10.305-8.337 18.639-18.643 18.639s-18.639-8.334-18.639-18.639c0-10.305 8.334-18.643 18.639-18.643h0.914v-0.914c0-10.305 8.337-18.639 18.643-18.639zM46.668 15.804c-0.856 0-1.532 0.675-1.532 1.529s0.678 1.532 1.532 1.532c0.854 0 1.529-0.677 1.529-1.532s-0.673-1.529-1.529-1.529zM36.889 15.804c-0.856 0-1.529 0.673-1.529 1.529s0.675 1.532 1.529 1.532c0.854 0 1.532-0.678 1.532-1.532s-0.676-1.529-1.532-1.529zM50.457 23.136h-3.061c-0.457 2.745-2.747 4.889-5.618 4.889s-5.161-2.144-5.618-4.889h-3.057c0.477 4.451 4.098 7.95 8.679 7.95s8.198-3.498 8.675-7.95zM22.221 26.196c-8.595 0-15.582 6.987-15.582 15.582s6.988 15.579 15.582 15.579c8.59-0.010 15.572-6.99 15.582-15.579 0-0.232-0.009-0.451-0.018-0.661l-0.032-0.675-0.65-0.171c-1.537-0.405-2.868-0.939-4.121-1.614l-0.482-0.261-6.225 4.15-1.7-2.546 5.214-3.475-0.832-0.789c-2.468-2.341-4.293-5.33-5.196-8.7l-0.186-0.789-0.693-0.032c-0.209-0.009-0.427-0.018-0.661-0.018zM14.046 36.107l5.811 3.875-1.7 2.546-5.811-3.879zM28.639 47.582v3.061h-12.836v-3.061z"/>
<text x="0" y="79" fill="#000000" font-size="5px" font-weight="bold" font-family="'Helvetica Neue', Helvetica, Arial-Unicode, Arial, Sans-serif">Created by shuai tawf</text><text x="0" y="84" fill="#000000" font-size="5px" font-weight="bold" font-family="'Helvetica Neue', Helvetica, Arial-Unicode, Arial, Sans-serif">from the Noun Project</text>
</svg>